<?xml version="1.0" encoding="UTF-8" standalone="no"?>
<!-- Created with Inkscape (http://www.inkscape.org/) -->

<svg
   width="13.19485mm"
   height="13.21146mm"
   viewBox="0 0 13.19485 13.21146"
   version="1.1"
   id="svg1"
   xml:space="preserve"
   xmlns="http://www.w3.org/2000/svg"
   xmlns:svg="http://www.w3.org/2000/svg"><defs
     id="defs1" /><g
     id="layer1"
     transform="translate(-96.55955,-132.53168)"><path
       id="path2-3"
       style="stroke-width:0.0264055"
       d="m 105.04891,133.17885 c -0.0343,0.0211 -0.22181,0.24557 -0.42249,0.49378 -0.1954,0.25085 -0.59149,0.73935 -0.87667,1.08791 -1.34668,1.64242 -1.74276,2.15469 -1.86422,2.4029 -0.15844,0.31686 -0.22181,0.55451 -0.23765,0.87138 -0.0317,0.52283 0.13202,0.9506 0.5017,1.32028 0.25349,0.25085 0.46474,0.38288 0.80801,0.49378 0.23765,0.0792 0.27462,0.0845 0.63373,0.0845 0.3644,0 0.39608,0 0.59677,-0.0792 0.6126,-0.23765 1.02981,-0.74992 1.18824,-1.47079 0.0528,-0.21652 0.0528,-0.75783 0.0106,-2.10452 l -0.0528,-1.90119 c -0.0264,-0.97173 -0.037,-1.10375 -0.0792,-1.16185 -0.0528,-0.0792 -0.12675,-0.0951 -0.20596,-0.037 z m -2.27616,-0.6311 c -2.59566,0.17956 -4.805804,1.78238 -5.751122,4.16679 -0.844976,2.13885 -0.517548,4.56288 0.871383,6.40334 1.050939,1.3995 2.566619,2.29728 4.338429,2.56134 0.43569,0.0713 1.26746,0.0845 1.67675,0.0317 1.28595,-0.16636 2.43459,-0.64958 3.40631,-1.43118 0.34327,-0.27726 0.87138,-0.82386 1.11431,-1.15392 0.69711,-0.9374 1.13016,-2.00154 1.29387,-3.17659 0.0423,-0.32479 0.0423,-1.28595 0,-1.61074 -0.10562,-0.74727 -0.31686,-1.44702 -0.63901,-2.09923 -0.33799,-0.68655 -0.69975,-1.19617 -1.23578,-1.73749 -0.27462,-0.28254 -0.73935,-0.67862 -0.78688,-0.67862 -0.0159,0 -0.0106,0.27726 0.008,0.68654 l 0.0343,0.68655 0.18483,0.22973 c 0.50171,0.62581 0.86611,1.41269 1.0087,2.19165 0.066,0.36968 0.0792,1.13544 0.0264,1.47343 -0.11882,0.73408 -0.40136,1.4259 -0.81857,2.02002 -0.22709,0.32215 -0.73935,0.83442 -1.0615,1.06151 -0.63373,0.44889 -1.32028,0.72879 -2.11244,0.87138 -0.26406,0.0475 -1.29387,0.0475 -1.55793,0 -1.13544,-0.20332 -2.08075,-0.68655 -2.830671,-1.44702 -0.773682,-0.78425 -1.227857,-1.68996 -1.383649,-2.75674 -0.05281,-0.36968 -0.03961,-1.10903 0.0264,-1.4523 0.33271,-1.65299 1.44175,-2.95742 3.02608,-3.54627 0.21124,-0.0792 0.48586,-0.15315 0.77896,-0.21652 0.0449,-0.0106 0.90835,-1.00341 0.93212,-1.07207 0.008,-0.0264 -0.26934,-0.0264 -0.54924,-0.0106 z" /></g></svg>
