<?xml version="1.0" encoding="UTF-8" standalone="no"?>
<!-- Created with Inkscape (http://www.inkscape.org/) -->

<svg
   width="210mm"
   height="297mm"
   viewBox="0 0 210 297"
   version="1.1"
   id="svg1"
   xml:space="preserve"
   inkscape:version="1.4 (e7c3feb1, 2024-10-09)"
   sodipodi:docname="icons.svg"
   xmlns:inkscape="http://www.inkscape.org/namespaces/inkscape"
   xmlns:sodipodi="http://sodipodi.sourceforge.net/DTD/sodipodi-0.dtd"
   xmlns="http://www.w3.org/2000/svg"
   xmlns:svg="http://www.w3.org/2000/svg"><sodipodi:namedview
     id="namedview1"
     pagecolor="#505050"
     bordercolor="#eeeeee"
     borderopacity="1"
     inkscape:showpageshadow="0"
     inkscape:pageopacity="0"
     inkscape:pagecheckerboard="0"
     inkscape:deskcolor="#505050"
     inkscape:document-units="mm"
     inkscape:zoom="5.5513319"
     inkscape:cx="420.70985"
     inkscape:cy="565.63003"
     inkscape:window-width="1280"
     inkscape:window-height="1567"
     inkscape:window-x="1280"
     inkscape:window-y="25"
     inkscape:window-maximized="0"
     inkscape:current-layer="layer1" /><defs
     id="defs1" /><g
     inkscape:label="Layer 1"
     inkscape:groupmode="layer"
     id="layer1"><path
       id="path2"
       style="stroke-width:0.0264055"
       d="M 102.92137 148.44055 C 102.81804 148.43923 102.67891 148.44299 102.53896 148.45089 L 102.53844 148.45605 C 99.942785 148.63561 97.732692 150.23832 96.787374 152.62273 C 95.942398 154.76158 96.270224 157.18601 97.659155 159.02647 C 98.710094 160.42597 100.22558 161.32349 101.99739 161.58755 C 102.43308 161.65885 103.26501 161.67239 103.67429 161.61959 C 103.70242 161.61595 103.7295 161.6101 103.75749 161.60616 A 4.1469002 4.1464343 0 0 1 101.73022 158.74948 C 100.94718 158.49233 100.27226 158.07771 99.708126 157.50563 C 98.934444 156.72138 98.480023 155.81547 98.324231 154.74869 C 98.271421 154.37901 98.284576 153.63986 98.350586 153.29659 C 98.683296 151.6436 99.792433 150.33888 101.37676 149.75003 C 101.58801 149.67083 101.86294 149.59688 102.15604 149.53351 C 102.20094 149.52291 103.06399 148.52988 103.08776 148.46122 C 103.09176 148.44802 103.02469 148.44188 102.92137 148.44055 z M 104.92796 149.05447 C 104.89297 149.04786 104.8544 149.05797 104.81479 149.08702 L 104.81479 149.08754 C 104.78049 149.10864 104.59327 149.33284 104.39259 149.58105 C 104.19719 149.8319 103.80083 150.32028 103.51565 150.66884 C 102.16897 152.31126 101.77314 152.82358 101.65168 153.07179 C 101.49325 153.38865 101.4298 153.62619 101.41396 153.94306 C 101.38226 154.46589 101.54607 154.89371 101.91574 155.26339 C 102.08335 155.42925 102.23545 155.5406 102.41649 155.63081 A 4.1469002 4.1464343 0 0 1 105.17653 153.9136 C 105.18827 153.58787 105.18049 153.07233 105.15275 152.18709 L 105.10004 150.28592 C 105.07364 149.31419 105.06318 149.18233 105.02098 149.12423 C 104.99458 149.08463 104.96295 149.06108 104.92796 149.05447 z M 106.82707 149.73143 C 106.81127 149.73143 106.81622 150.00893 106.83482 150.41821 L 106.86945 151.10447 L 107.05393 151.33443 C 107.55563 151.96024 107.92006 152.74707 108.06265 153.52603 C 108.10799 153.77998 108.1262 154.21591 108.11743 154.57661 A 4.1469002 4.1464343 0 0 1 109.45327 156.06541 C 109.46494 155.99616 109.47865 155.92771 109.48841 155.85767 C 109.53061 155.53288 109.53061 154.57171 109.48841 154.24692 C 109.38278 153.49965 109.17184 152.80003 108.84969 152.14782 C 108.5117 151.46127 108.14963 150.95178 107.61359 150.41046 C 107.33898 150.12792 106.8746 149.73143 106.82707 149.73143 z "
       inkscape:export-filename="dark_dot_blue.svg"
       inkscape:export-xdpi="96"
       inkscape:export-ydpi="96" /><ellipse
       style="display:inline;opacity:1;fill:#579eff;fill-opacity:1;stroke:none;stroke-width:0.340002;stroke-dasharray:none"
       id="ellipse6"
       cx="105.80218"
       cy="158.0099"
       rx="3.014616"
       ry="3.0142775" /><path
       id="path6"
       style="stroke-width:0.0264055"
       d="m 103.2803,164.13549 c -0.10333,-0.001 -0.24246,0.002 -0.38241,0.0103 l -5.2e-4,0.005 c -2.59566,0.17956 -4.80575,1.78227 -5.751068,4.16668 -0.844976,2.13885 -0.51715,4.56328 0.871781,6.40374 1.050939,1.3995 2.566427,2.29702 4.338237,2.56108 0.43569,0.0713 1.26762,0.0848 1.6769,0.032 0.0281,-0.004 0.0552,-0.009 0.0832,-0.0134 a 4.1469002,4.1464343 0 0 1 -2.02727,-2.85668 c -0.78304,-0.25715 -1.45796,-0.67177 -2.0221,-1.24385 -0.773678,-0.78425 -1.228099,-1.69016 -1.383891,-2.75694 -0.05281,-0.36968 -0.03966,-1.10883 0.02635,-1.4521 0.33271,-1.65299 1.441846,-2.95771 3.026176,-3.54656 0.21125,-0.0792 0.48618,-0.15315 0.77928,-0.21652 0.0449,-0.0106 0.90795,-1.00363 0.93172,-1.07229 0.004,-0.0132 -0.0631,-0.0193 -0.16639,-0.0207 z m 2.00659,0.61392 c -0.035,-0.007 -0.0736,0.004 -0.11317,0.0325 v 5.2e-4 c -0.0343,0.0211 -0.22152,0.2453 -0.4222,0.49351 -0.1954,0.25085 -0.59176,0.73923 -0.87694,1.08779 -1.34668,1.64242 -1.74251,2.15474 -1.86397,2.40295 -0.15843,0.31686 -0.22188,0.5544 -0.23772,0.87127 -0.0317,0.52283 0.13211,0.95065 0.50178,1.32033 0.16761,0.16586 0.31971,0.27721 0.50075,0.36742 a 4.1469002,4.1464343 0 0 1 2.76004,-1.71721 c 0.0117,-0.32573 0.004,-0.84127 -0.0238,-1.72651 l -0.0527,-1.90117 c -0.0264,-0.97173 -0.0369,-1.10359 -0.0791,-1.16169 -0.0264,-0.0396 -0.058,-0.0632 -0.093,-0.0698 z m 1.89911,0.67696 c -0.0158,0 -0.0109,0.2775 0.008,0.68678 l 0.0346,0.68626 0.18448,0.22996 c 0.5017,0.62581 0.86613,1.41264 1.00872,2.1916 0.0453,0.25395 0.0635,0.68988 0.0548,1.05058 a 4.1469002,4.1464343 0 0 1 1.33584,1.4888 c 0.0117,-0.0692 0.0254,-0.1377 0.0351,-0.20774 0.0422,-0.32479 0.0422,-1.28596 0,-1.61075 -0.10563,-0.74727 -0.31657,-1.44689 -0.63872,-2.0991 -0.33799,-0.68655 -0.70006,-1.19604 -1.2361,-1.73736 -0.27461,-0.28254 -0.73899,-0.67903 -0.78652,-0.67903 z"
       inkscape:export-filename="dark_dot_red.svg"
       inkscape:export-xdpi="96"
       inkscape:export-ydpi="96" /><ellipse
       style="display:inline;opacity:1;fill:#ff0000;fill-opacity:1;stroke:none;stroke-width:0.340002;stroke-dasharray:none"
       id="ellipse7"
       cx="106.1611"
       cy="173.70485"
       rx="3.014616"
       ry="3.0142775" /><path
       id="path7"
       style="stroke-width:0.0264055"
       d="m 103.2803,164.13549 c -0.10333,-0.001 -0.24246,0.002 -0.38241,0.0103 l -5.2e-4,0.005 c -2.59566,0.17956 -4.80575,1.78227 -5.751068,4.16668 -0.844976,2.13885 -0.51715,4.56328 0.871781,6.40374 1.050939,1.3995 2.566427,2.29702 4.338237,2.56108 0.43569,0.0713 1.26762,0.0848 1.6769,0.032 0.0281,-0.004 0.0552,-0.009 0.0832,-0.0134 a 4.1469002,4.1464343 0 0 1 -2.02727,-2.85668 c -0.78304,-0.25715 -1.45796,-0.67177 -2.0221,-1.24385 -0.773678,-0.78425 -1.228099,-1.69016 -1.383891,-2.75694 -0.05281,-0.36968 -0.03966,-1.10883 0.02635,-1.4521 0.33271,-1.65299 1.441846,-2.95771 3.026176,-3.54656 0.21125,-0.0792 0.48618,-0.15315 0.77928,-0.21652 0.0449,-0.0106 0.90795,-1.00363 0.93172,-1.07229 0.004,-0.0132 -0.0631,-0.0193 -0.16639,-0.0207 z m 2.00659,0.61392 c -0.035,-0.007 -0.0736,0.004 -0.11317,0.0325 v 5.2e-4 c -0.0343,0.0211 -0.22152,0.2453 -0.4222,0.49351 -0.1954,0.25085 -0.59176,0.73923 -0.87694,1.08779 -1.34668,1.64242 -1.74251,2.15474 -1.86397,2.40295 -0.15843,0.31686 -0.22188,0.5544 -0.23772,0.87127 -0.0317,0.52283 0.13211,0.95065 0.50178,1.32033 0.16761,0.16586 0.31971,0.27721 0.50075,0.36742 a 4.1469002,4.1464343 0 0 1 2.76004,-1.71721 c 0.0117,-0.32573 0.004,-0.84127 -0.0238,-1.72651 l -0.0527,-1.90117 c -0.0264,-0.97173 -0.0369,-1.10359 -0.0791,-1.16169 -0.0264,-0.0396 -0.058,-0.0632 -0.093,-0.0698 z m 1.89911,0.67696 c -0.0158,0 -0.0109,0.2775 0.008,0.68678 l 0.0346,0.68626 0.18448,0.22996 c 0.5017,0.62581 0.86613,1.41264 1.00872,2.1916 0.0453,0.25395 0.0635,0.68988 0.0548,1.05058 a 4.1469002,4.1464343 0 0 1 1.33584,1.4888 c 0.0117,-0.0692 0.0254,-0.1377 0.0351,-0.20774 0.0422,-0.32479 0.0422,-1.28596 0,-1.61075 -0.10563,-0.74727 -0.31657,-1.44689 -0.63872,-2.0991 -0.33799,-0.68655 -0.70006,-1.19604 -1.2361,-1.73736 -0.27461,-0.28254 -0.73899,-0.67903 -0.78652,-0.67903 z" /><path
       id="path8"
       style="stroke-width:0.0264055"
       d="m 121.71615,164.52705 c -0.10333,-0.001 -0.24246,0.002 -0.38241,0.0103 l -5.2e-4,0.005 c -2.59566,0.17956 -4.80575,1.78227 -5.75107,4.16668 -0.84498,2.13885 -0.51715,4.56328 0.87178,6.40374 1.05094,1.3995 2.56643,2.29702 4.33824,2.56108 0.43569,0.0713 1.26762,0.0848 1.6769,0.032 0.0281,-0.004 0.0552,-0.009 0.0832,-0.0134 a 4.1469002,4.1464343 0 0 1 -2.02727,-2.85668 c -0.78304,-0.25715 -1.45796,-0.67177 -2.0221,-1.24385 -0.77368,-0.78425 -1.2281,-1.69016 -1.38389,-2.75694 -0.0528,-0.36968 -0.0397,-1.10883 0.0263,-1.4521 0.33271,-1.65299 1.44184,-2.95771 3.02617,-3.54656 0.21125,-0.0792 0.48618,-0.15315 0.77928,-0.21652 0.0449,-0.0106 0.90795,-1.00363 0.93172,-1.07229 0.004,-0.0132 -0.0631,-0.0193 -0.16639,-0.0207 z m 2.00659,0.61392 c -0.035,-0.007 -0.0736,0.004 -0.11317,0.0325 v 5.2e-4 c -0.0343,0.0211 -0.22152,0.2453 -0.4222,0.49351 -0.1954,0.25085 -0.59176,0.73923 -0.87694,1.08779 -1.34668,1.64242 -1.74251,2.15474 -1.86397,2.40295 -0.15843,0.31686 -0.22188,0.5544 -0.23772,0.87127 -0.0317,0.52283 0.13211,0.95065 0.50178,1.32033 0.16761,0.16586 0.31971,0.27721 0.50075,0.36742 a 4.1469002,4.1464343 0 0 1 2.76004,-1.71721 c 0.0117,-0.32573 0.004,-0.84127 -0.0238,-1.72651 l -0.0527,-1.90117 c -0.0264,-0.97173 -0.0369,-1.10359 -0.0791,-1.16169 -0.0264,-0.0396 -0.058,-0.0632 -0.093,-0.0698 z m 1.89911,0.67696 c -0.0158,0 -0.0109,0.2775 0.008,0.68678 l 0.0346,0.68626 0.18448,0.22996 c 0.5017,0.62581 0.86613,1.41264 1.00872,2.1916 0.0453,0.25395 0.0635,0.68988 0.0548,1.05058 a 4.1469002,4.1464343 0 0 1 1.33584,1.4888 c 0.0117,-0.0692 0.0254,-0.1377 0.0351,-0.20774 0.0422,-0.32479 0.0422,-1.28596 0,-1.61075 -0.10563,-0.74727 -0.31657,-1.44689 -0.63872,-2.0991 -0.33799,-0.68655 -0.70006,-1.19604 -1.2361,-1.73736 -0.27461,-0.28254 -0.73899,-0.67903 -0.78652,-0.67903 z"
       inkscape:export-filename="light_dot_red.svg"
       inkscape:export-xdpi="96"
       inkscape:export-ydpi="96" /><ellipse
       style="display:inline;opacity:1;fill:#ff0000;fill-opacity:1;stroke:none;stroke-width:0.340002;stroke-dasharray:none"
       id="ellipse8"
       cx="124.59695"
       cy="174.09641"
       rx="3.014616"
       ry="3.0142775" /><path
       id="path9"
       style="stroke-width:0.0264055;fill:#ffffff;fill-opacity:1"
       d="m 121.71615,164.52705 c -0.10333,-0.001 -0.24246,0.002 -0.38241,0.0103 l -5.2e-4,0.005 c -2.59566,0.17956 -4.80575,1.78227 -5.75107,4.16668 -0.84498,2.13885 -0.51715,4.56328 0.87178,6.40374 1.05094,1.3995 2.56643,2.29702 4.33824,2.56108 0.43569,0.0713 1.26762,0.0848 1.6769,0.032 0.0281,-0.004 0.0552,-0.009 0.0832,-0.0134 a 4.1469002,4.1464343 0 0 1 -2.02727,-2.85668 c -0.78304,-0.25715 -1.45796,-0.67177 -2.0221,-1.24385 -0.77368,-0.78425 -1.2281,-1.69016 -1.38389,-2.75694 -0.0528,-0.36968 -0.0397,-1.10883 0.0263,-1.4521 0.33271,-1.65299 1.44184,-2.95771 3.02617,-3.54656 0.21125,-0.0792 0.48618,-0.15315 0.77928,-0.21652 0.0449,-0.0106 0.90795,-1.00363 0.93172,-1.07229 0.004,-0.0132 -0.0631,-0.0193 -0.16639,-0.0207 z m 2.00659,0.61392 c -0.035,-0.007 -0.0736,0.004 -0.11317,0.0325 v 5.2e-4 c -0.0343,0.0211 -0.22152,0.2453 -0.4222,0.49351 -0.1954,0.25085 -0.59176,0.73923 -0.87694,1.08779 -1.34668,1.64242 -1.74251,2.15474 -1.86397,2.40295 -0.15843,0.31686 -0.22188,0.5544 -0.23772,0.87127 -0.0317,0.52283 0.13211,0.95065 0.50178,1.32033 0.16761,0.16586 0.31971,0.27721 0.50075,0.36742 a 4.1469002,4.1464343 0 0 1 2.76004,-1.71721 c 0.0117,-0.32573 0.004,-0.84127 -0.0238,-1.72651 l -0.0527,-1.90117 c -0.0264,-0.97173 -0.0369,-1.10359 -0.0791,-1.16169 -0.0264,-0.0396 -0.058,-0.0632 -0.093,-0.0698 z m 1.89911,0.67696 c -0.0158,0 -0.0109,0.2775 0.008,0.68678 l 0.0346,0.68626 0.18448,0.22996 c 0.5017,0.62581 0.86613,1.41264 1.00872,2.1916 0.0453,0.25395 0.0635,0.68988 0.0548,1.05058 a 4.1469002,4.1464343 0 0 1 1.33584,1.4888 c 0.0117,-0.0692 0.0254,-0.1377 0.0351,-0.20774 0.0422,-0.32479 0.0422,-1.28596 0,-1.61075 -0.10563,-0.74727 -0.31657,-1.44689 -0.63872,-2.0991 -0.33799,-0.68655 -0.70006,-1.19604 -1.2361,-1.73736 -0.27461,-0.28254 -0.73899,-0.67903 -0.78652,-0.67903 z" /><path
       id="path10"
       style="stroke-width:0.0264055"
       d="m 121.78141,149.06052 c -0.10333,-0.001 -0.24246,0.002 -0.38241,0.0103 l -5.2e-4,0.005 c -2.59566,0.17956 -4.80575,1.78227 -5.75107,4.16668 -0.84498,2.13885 -0.51715,4.56328 0.87178,6.40374 1.05094,1.3995 2.56643,2.29702 4.33824,2.56108 0.43569,0.0713 1.26762,0.0848 1.6769,0.032 0.0281,-0.004 0.0552,-0.009 0.0832,-0.0134 a 4.1469002,4.1464343 0 0 1 -2.02727,-2.85668 c -0.78304,-0.25715 -1.45796,-0.67177 -2.0221,-1.24385 -0.77368,-0.78425 -1.2281,-1.69016 -1.38389,-2.75694 -0.0528,-0.36968 -0.0397,-1.10883 0.0263,-1.4521 0.33271,-1.65299 1.44184,-2.95771 3.02617,-3.54656 0.21125,-0.0792 0.48618,-0.15315 0.77928,-0.21652 0.0449,-0.0106 0.90795,-1.00363 0.93172,-1.07229 0.004,-0.0132 -0.0631,-0.0193 -0.16639,-0.0207 z m 2.00659,0.61392 c -0.035,-0.007 -0.0736,0.004 -0.11317,0.0325 v 5.2e-4 c -0.0343,0.0211 -0.22152,0.2453 -0.4222,0.49351 -0.1954,0.25085 -0.59176,0.73923 -0.87694,1.08779 -1.34668,1.64242 -1.74251,2.15474 -1.86397,2.40295 -0.15843,0.31686 -0.22188,0.5544 -0.23772,0.87127 -0.0317,0.52283 0.13211,0.95065 0.50178,1.32033 0.16761,0.16586 0.31971,0.27721 0.50075,0.36742 a 4.1469002,4.1464343 0 0 1 2.76004,-1.71721 c 0.0117,-0.32573 0.004,-0.84127 -0.0238,-1.72651 l -0.0527,-1.90117 c -0.0264,-0.97173 -0.0369,-1.10359 -0.0791,-1.16169 -0.0264,-0.0396 -0.058,-0.0632 -0.093,-0.0698 z m 1.89911,0.67696 c -0.0158,0 -0.0109,0.2775 0.008,0.68678 l 0.0346,0.68626 0.18448,0.22996 c 0.5017,0.62581 0.86613,1.41264 1.00872,2.1916 0.0453,0.25395 0.0635,0.68988 0.0548,1.05058 a 4.1469002,4.1464343 0 0 1 1.33584,1.4888 c 0.0117,-0.0692 0.0254,-0.1377 0.0351,-0.20774 0.0422,-0.32479 0.0422,-1.28596 0,-1.61075 -0.10563,-0.74727 -0.31657,-1.44689 -0.63872,-2.0991 -0.33799,-0.68655 -0.70006,-1.19604 -1.2361,-1.73736 -0.27461,-0.28254 -0.73899,-0.67903 -0.78652,-0.67903 z"
       inkscape:export-filename="light_dot_blue.svg"
       inkscape:export-xdpi="96"
       inkscape:export-ydpi="96" /><ellipse
       style="display:inline;opacity:1;fill:#579eff;fill-opacity:1;stroke:none;stroke-width:0.340002;stroke-dasharray:none"
       id="ellipse10"
       cx="124.66221"
       cy="158.62987"
       rx="3.014616"
       ry="3.0142775" /><path
       id="path11"
       style="stroke-width:0.0264055;fill:#ffffff;fill-opacity:1"
       d="m 121.78141,149.06052 c -0.10333,-0.001 -0.24246,0.002 -0.38241,0.0103 l -5.2e-4,0.005 c -2.59566,0.17956 -4.80575,1.78227 -5.75107,4.16668 -0.84498,2.13885 -0.51715,4.56328 0.87178,6.40374 1.05094,1.3995 2.56643,2.29702 4.33824,2.56108 0.43569,0.0713 1.26762,0.0848 1.6769,0.032 0.0281,-0.004 0.0552,-0.009 0.0832,-0.0134 a 4.1469002,4.1464343 0 0 1 -2.02727,-2.85668 c -0.78304,-0.25715 -1.45796,-0.67177 -2.0221,-1.24385 -0.77368,-0.78425 -1.2281,-1.69016 -1.38389,-2.75694 -0.0528,-0.36968 -0.0397,-1.10883 0.0263,-1.4521 0.33271,-1.65299 1.44184,-2.95771 3.02617,-3.54656 0.21125,-0.0792 0.48618,-0.15315 0.77928,-0.21652 0.0449,-0.0106 0.90795,-1.00363 0.93172,-1.07229 0.004,-0.0132 -0.0631,-0.0193 -0.16639,-0.0207 z m 2.00659,0.61392 c -0.035,-0.007 -0.0736,0.004 -0.11317,0.0325 v 5.2e-4 c -0.0343,0.0211 -0.22152,0.2453 -0.4222,0.49351 -0.1954,0.25085 -0.59176,0.73923 -0.87694,1.08779 -1.34668,1.64242 -1.74251,2.15474 -1.86397,2.40295 -0.15843,0.31686 -0.22188,0.5544 -0.23772,0.87127 -0.0317,0.52283 0.13211,0.95065 0.50178,1.32033 0.16761,0.16586 0.31971,0.27721 0.50075,0.36742 a 4.1469002,4.1464343 0 0 1 2.76004,-1.71721 c 0.0117,-0.32573 0.004,-0.84127 -0.0238,-1.72651 l -0.0527,-1.90117 c -0.0264,-0.97173 -0.0369,-1.10359 -0.0791,-1.16169 -0.0264,-0.0396 -0.058,-0.0632 -0.093,-0.0698 z m 1.89911,0.67696 c -0.0158,0 -0.0109,0.2775 0.008,0.68678 l 0.0346,0.68626 0.18448,0.22996 c 0.5017,0.62581 0.86613,1.41264 1.00872,2.1916 0.0453,0.25395 0.0635,0.68988 0.0548,1.05058 a 4.1469002,4.1464343 0 0 1 1.33584,1.4888 c 0.0117,-0.0692 0.0254,-0.1377 0.0351,-0.20774 0.0422,-0.32479 0.0422,-1.28596 0,-1.61075 -0.10563,-0.74727 -0.31657,-1.44689 -0.63872,-2.0991 -0.33799,-0.68655 -0.70006,-1.19604 -1.2361,-1.73736 -0.27461,-0.28254 -0.73899,-0.67903 -0.78652,-0.67903 z" /><path
       id="path2-3"
       style="stroke-width:0.0264055"
       d="m 105.04891,133.17885 c -0.0343,0.0211 -0.22181,0.24557 -0.42249,0.49378 -0.1954,0.25085 -0.59149,0.73935 -0.87667,1.08791 -1.34668,1.64242 -1.74276,2.15469 -1.86422,2.4029 -0.15844,0.31686 -0.22181,0.55451 -0.23765,0.87138 -0.0317,0.52283 0.13202,0.9506 0.5017,1.32028 0.25349,0.25085 0.46474,0.38288 0.80801,0.49378 0.23765,0.0792 0.27462,0.0845 0.63373,0.0845 0.3644,0 0.39608,0 0.59677,-0.0792 0.6126,-0.23765 1.02981,-0.74992 1.18824,-1.47079 0.0528,-0.21652 0.0528,-0.75783 0.0106,-2.10452 l -0.0528,-1.90119 c -0.0264,-0.97173 -0.037,-1.10375 -0.0792,-1.16185 -0.0528,-0.0792 -0.12675,-0.0951 -0.20596,-0.037 z m -2.27616,-0.6311 c -2.59566,0.17956 -4.805804,1.78238 -5.751122,4.16679 -0.844976,2.13885 -0.517548,4.56288 0.871383,6.40334 1.050939,1.3995 2.566619,2.29728 4.338429,2.56134 0.43569,0.0713 1.26746,0.0845 1.67675,0.0317 1.28595,-0.16636 2.43459,-0.64958 3.40631,-1.43118 0.34327,-0.27726 0.87138,-0.82386 1.11431,-1.15392 0.69711,-0.9374 1.13016,-2.00154 1.29387,-3.17659 0.0423,-0.32479 0.0423,-1.28595 0,-1.61074 -0.10562,-0.74727 -0.31686,-1.44702 -0.63901,-2.09923 -0.33799,-0.68655 -0.69975,-1.19617 -1.23578,-1.73749 -0.27462,-0.28254 -0.73935,-0.67862 -0.78688,-0.67862 -0.0159,0 -0.0106,0.27726 0.008,0.68654 l 0.0343,0.68655 0.18483,0.22973 c 0.50171,0.62581 0.86611,1.41269 1.0087,2.19165 0.066,0.36968 0.0792,1.13544 0.0264,1.47343 -0.11882,0.73408 -0.40136,1.4259 -0.81857,2.02002 -0.22709,0.32215 -0.73935,0.83442 -1.0615,1.06151 -0.63373,0.44889 -1.32028,0.72879 -2.11244,0.87138 -0.26406,0.0475 -1.29387,0.0475 -1.55793,0 -1.13544,-0.20332 -2.08075,-0.68655 -2.830671,-1.44702 -0.773682,-0.78425 -1.227857,-1.68996 -1.383649,-2.75674 -0.05281,-0.36968 -0.03961,-1.10903 0.0264,-1.4523 0.33271,-1.65299 1.44175,-2.95742 3.02608,-3.54627 0.21124,-0.0792 0.48586,-0.15315 0.77896,-0.21652 0.0449,-0.0106 0.90835,-1.00341 0.93212,-1.07207 0.008,-0.0264 -0.26934,-0.0264 -0.54924,-0.0106 z"
       inkscape:label="dark"
       inkscape:export-filename="dark.svg"
       inkscape:export-xdpi="96"
       inkscape:export-ydpi="96" /><path
       id="path13"
       style="stroke-width:0.0264055;fill:#ffffff;fill-opacity:1"
       d="m 123.81105,133.96197 c -0.0343,0.0211 -0.22181,0.24557 -0.42249,0.49378 -0.1954,0.25085 -0.59148,0.73935 -0.87666,1.08791 -1.34668,1.64242 -1.74277,2.15469 -1.86423,2.4029 -0.15844,0.31686 -0.22181,0.55451 -0.23765,0.87138 -0.0317,0.52283 0.13203,0.9506 0.5017,1.32028 0.2535,0.25085 0.46474,0.38288 0.80801,0.49378 0.23765,0.0792 0.27462,0.0845 0.63373,0.0845 0.3644,0 0.39609,0 0.59677,-0.0792 0.61261,-0.23765 1.02981,-0.74992 1.18825,-1.47079 0.0528,-0.21652 0.0528,-0.75783 0.0106,-2.10452 l -0.0528,-1.90119 c -0.0264,-0.97173 -0.037,-1.10375 -0.0792,-1.16185 -0.0528,-0.0792 -0.12674,-0.0951 -0.20596,-0.037 z m -2.27616,-0.6311 c -2.59566,0.17956 -4.8058,1.78238 -5.75112,4.16679 -0.84498,2.13885 -0.51755,4.56288 0.87138,6.40334 1.05094,1.3995 2.56662,2.29728 4.33843,2.56134 0.43569,0.0713 1.26746,0.0845 1.67675,0.0317 1.28595,-0.16636 2.43459,-0.64958 3.40631,-1.43118 0.34327,-0.27726 0.87138,-0.82386 1.11432,-1.15392 0.6971,-0.9374 1.13015,-2.00154 1.29387,-3.17659 0.0422,-0.32479 0.0422,-1.28595 0,-1.61074 -0.10563,-0.74727 -0.31687,-1.44702 -0.63902,-2.09923 -0.33799,-0.68655 -0.69974,-1.19617 -1.23578,-1.73749 -0.27461,-0.28254 -0.73935,-0.67862 -0.78688,-0.67862 -0.0158,0 -0.0106,0.27726 0.008,0.68654 l 0.0343,0.68655 0.18484,0.22973 c 0.5017,0.62581 0.8661,1.41269 1.00869,2.19165 0.066,0.36968 0.0792,1.13544 0.0264,1.47343 -0.11882,0.73408 -0.40136,1.4259 -0.81857,2.02002 -0.22709,0.32215 -0.73935,0.83442 -1.0615,1.06151 -0.63373,0.44889 -1.32028,0.72879 -2.11244,0.87138 -0.26406,0.0475 -1.29387,0.0475 -1.55793,0 -1.13543,-0.20332 -2.08075,-0.68655 -2.83067,-1.44702 -0.77368,-0.78425 -1.22786,-1.68996 -1.38365,-2.75674 -0.0528,-0.36968 -0.0396,-1.10903 0.0264,-1.4523 0.33271,-1.65299 1.44174,-2.95742 3.02607,-3.54627 0.21124,-0.0792 0.48586,-0.15315 0.77896,-0.21652 0.0449,-0.0106 0.90835,-1.00341 0.93212,-1.07207 0.008,-0.0264 -0.26934,-0.0264 -0.54924,-0.0106 z"
       inkscape:label="light"
       inkscape:export-filename="light.svg"
       inkscape:export-xdpi="96"
       inkscape:export-ydpi="96" /></g></svg>
