<?xml version="1.0" encoding="UTF-8" standalone="no"?>
<!-- Created with Inkscape (http://www.inkscape.org/) -->

<svg
   width="13.194777mm"
   height="13.211467mm"
   viewBox="0 0 13.194777 13.211467"
   version="1.1"
   id="svg1"
   xml:space="preserve"
   xmlns="http://www.w3.org/2000/svg"
   xmlns:svg="http://www.w3.org/2000/svg"><defs
     id="defs1" /><g
     id="layer1"
     transform="translate(-115.32169,-133.31477)"><path
       id="path13"
       style="fill:#ffffff;fill-opacity:1;stroke-width:0.0264055"
       d="m 123.81105,133.96197 c -0.0343,0.0211 -0.22181,0.24557 -0.42249,0.49378 -0.1954,0.25085 -0.59148,0.73935 -0.87666,1.08791 -1.34668,1.64242 -1.74277,2.15469 -1.86423,2.4029 -0.15844,0.31686 -0.22181,0.55451 -0.23765,0.87138 -0.0317,0.52283 0.13203,0.9506 0.5017,1.32028 0.2535,0.25085 0.46474,0.38288 0.80801,0.49378 0.23765,0.0792 0.27462,0.0845 0.63373,0.0845 0.3644,0 0.39609,0 0.59677,-0.0792 0.61261,-0.23765 1.02981,-0.74992 1.18825,-1.47079 0.0528,-0.21652 0.0528,-0.75783 0.0106,-2.10452 l -0.0528,-1.90119 c -0.0264,-0.97173 -0.037,-1.10375 -0.0792,-1.16185 -0.0528,-0.0792 -0.12674,-0.0951 -0.20596,-0.037 z m -2.27616,-0.6311 c -2.59566,0.17956 -4.8058,1.78238 -5.75112,4.16679 -0.84498,2.13885 -0.51755,4.56288 0.87138,6.40334 1.05094,1.3995 2.56662,2.29728 4.33843,2.56134 0.43569,0.0713 1.26746,0.0845 1.67675,0.0317 1.28595,-0.16636 2.43459,-0.64958 3.40631,-1.43118 0.34327,-0.27726 0.87138,-0.82386 1.11432,-1.15392 0.6971,-0.9374 1.13015,-2.00154 1.29387,-3.17659 0.0422,-0.32479 0.0422,-1.28595 0,-1.61074 -0.10563,-0.74727 -0.31687,-1.44702 -0.63902,-2.09923 -0.33799,-0.68655 -0.69974,-1.19617 -1.23578,-1.73749 -0.27461,-0.28254 -0.73935,-0.67862 -0.78688,-0.67862 -0.0158,0 -0.0106,0.27726 0.008,0.68654 l 0.0343,0.68655 0.18484,0.22973 c 0.5017,0.62581 0.8661,1.41269 1.00869,2.19165 0.066,0.36968 0.0792,1.13544 0.0264,1.47343 -0.11882,0.73408 -0.40136,1.4259 -0.81857,2.02002 -0.22709,0.32215 -0.73935,0.83442 -1.0615,1.06151 -0.63373,0.44889 -1.32028,0.72879 -2.11244,0.87138 -0.26406,0.0475 -1.29387,0.0475 -1.55793,0 -1.13543,-0.20332 -2.08075,-0.68655 -2.83067,-1.44702 -0.77368,-0.78425 -1.22786,-1.68996 -1.38365,-2.75674 -0.0528,-0.36968 -0.0396,-1.10903 0.0264,-1.4523 0.33271,-1.65299 1.44174,-2.95742 3.02607,-3.54627 0.21124,-0.0792 0.48586,-0.15315 0.77896,-0.21652 0.0449,-0.0106 0.90835,-1.00341 0.93212,-1.07207 0.008,-0.0264 -0.26934,-0.0264 -0.54924,-0.0106 z" /></g></svg>
