<?xml version="1.0" encoding="UTF-8" standalone="no"?>
<!-- Created with Inkscape (http://www.inkscape.org/) -->

<svg
   width="13.194834mm"
   height="13.211129mm"
   viewBox="0 0 13.194834 13.211129"
   version="1.1"
   id="svg1"
   xml:space="preserve"
   xmlns="http://www.w3.org/2000/svg"
   xmlns:svg="http://www.w3.org/2000/svg"><defs
     id="defs1" /><g
     id="layer1"
     transform="translate(-115.1202,-164.52683)"><path
       id="path8"
       style="stroke-width:0.0264055"
       d="m 121.71615,164.52705 c -0.10333,-0.001 -0.24246,0.002 -0.38241,0.0103 l -5.2e-4,0.005 c -2.59566,0.17956 -4.80575,1.78227 -5.75107,4.16668 -0.84498,2.13885 -0.51715,4.56328 0.87178,6.40374 1.05094,1.3995 2.56643,2.29702 4.33824,2.56108 0.43569,0.0713 1.26762,0.0848 1.6769,0.032 0.0281,-0.004 0.0552,-0.009 0.0832,-0.0134 a 4.1469002,4.1464343 0 0 1 -2.02727,-2.85668 c -0.78304,-0.25715 -1.45796,-0.67177 -2.0221,-1.24385 -0.77368,-0.78425 -1.2281,-1.69016 -1.38389,-2.75694 -0.0528,-0.36968 -0.0397,-1.10883 0.0263,-1.4521 0.33271,-1.65299 1.44184,-2.95771 3.02617,-3.54656 0.21125,-0.0792 0.48618,-0.15315 0.77928,-0.21652 0.0449,-0.0106 0.90795,-1.00363 0.93172,-1.07229 0.004,-0.0132 -0.0631,-0.0193 -0.16639,-0.0207 z m 2.00659,0.61392 c -0.035,-0.007 -0.0736,0.004 -0.11317,0.0325 v 5.2e-4 c -0.0343,0.0211 -0.22152,0.2453 -0.4222,0.49351 -0.1954,0.25085 -0.59176,0.73923 -0.87694,1.08779 -1.34668,1.64242 -1.74251,2.15474 -1.86397,2.40295 -0.15843,0.31686 -0.22188,0.5544 -0.23772,0.87127 -0.0317,0.52283 0.13211,0.95065 0.50178,1.32033 0.16761,0.16586 0.31971,0.27721 0.50075,0.36742 a 4.1469002,4.1464343 0 0 1 2.76004,-1.71721 c 0.0117,-0.32573 0.004,-0.84127 -0.0238,-1.72651 l -0.0527,-1.90117 c -0.0264,-0.97173 -0.0369,-1.10359 -0.0791,-1.16169 -0.0264,-0.0396 -0.058,-0.0632 -0.093,-0.0698 z m 1.89911,0.67696 c -0.0158,0 -0.0109,0.2775 0.008,0.68678 l 0.0346,0.68626 0.18448,0.22996 c 0.5017,0.62581 0.86613,1.41264 1.00872,2.1916 0.0453,0.25395 0.0635,0.68988 0.0548,1.05058 a 4.1469002,4.1464343 0 0 1 1.33584,1.4888 c 0.0117,-0.0692 0.0254,-0.1377 0.0351,-0.20774 0.0422,-0.32479 0.0422,-1.28596 0,-1.61075 -0.10563,-0.74727 -0.31657,-1.44689 -0.63872,-2.0991 -0.33799,-0.68655 -0.70006,-1.19604 -1.2361,-1.73736 -0.27461,-0.28254 -0.73899,-0.67903 -0.78652,-0.67903 z" /><ellipse
       style="display:inline;opacity:1;fill:#ff0000;fill-opacity:1;stroke:none;stroke-width:0.340002;stroke-dasharray:none"
       id="ellipse8"
       cx="124.59695"
       cy="174.09641"
       rx="3.014616"
       ry="3.0142775" /><path
       id="path9"
       style="fill:#ffffff;fill-opacity:1;stroke-width:0.0264055"
       d="m 121.71615,164.52705 c -0.10333,-0.001 -0.24246,0.002 -0.38241,0.0103 l -5.2e-4,0.005 c -2.59566,0.17956 -4.80575,1.78227 -5.75107,4.16668 -0.84498,2.13885 -0.51715,4.56328 0.87178,6.40374 1.05094,1.3995 2.56643,2.29702 4.33824,2.56108 0.43569,0.0713 1.26762,0.0848 1.6769,0.032 0.0281,-0.004 0.0552,-0.009 0.0832,-0.0134 a 4.1469002,4.1464343 0 0 1 -2.02727,-2.85668 c -0.78304,-0.25715 -1.45796,-0.67177 -2.0221,-1.24385 -0.77368,-0.78425 -1.2281,-1.69016 -1.38389,-2.75694 -0.0528,-0.36968 -0.0397,-1.10883 0.0263,-1.4521 0.33271,-1.65299 1.44184,-2.95771 3.02617,-3.54656 0.21125,-0.0792 0.48618,-0.15315 0.77928,-0.21652 0.0449,-0.0106 0.90795,-1.00363 0.93172,-1.07229 0.004,-0.0132 -0.0631,-0.0193 -0.16639,-0.0207 z m 2.00659,0.61392 c -0.035,-0.007 -0.0736,0.004 -0.11317,0.0325 v 5.2e-4 c -0.0343,0.0211 -0.22152,0.2453 -0.4222,0.49351 -0.1954,0.25085 -0.59176,0.73923 -0.87694,1.08779 -1.34668,1.64242 -1.74251,2.15474 -1.86397,2.40295 -0.15843,0.31686 -0.22188,0.5544 -0.23772,0.87127 -0.0317,0.52283 0.13211,0.95065 0.50178,1.32033 0.16761,0.16586 0.31971,0.27721 0.50075,0.36742 a 4.1469002,4.1464343 0 0 1 2.76004,-1.71721 c 0.0117,-0.32573 0.004,-0.84127 -0.0238,-1.72651 l -0.0527,-1.90117 c -0.0264,-0.97173 -0.0369,-1.10359 -0.0791,-1.16169 -0.0264,-0.0396 -0.058,-0.0632 -0.093,-0.0698 z m 1.89911,0.67696 c -0.0158,0 -0.0109,0.2775 0.008,0.68678 l 0.0346,0.68626 0.18448,0.22996 c 0.5017,0.62581 0.86613,1.41264 1.00872,2.1916 0.0453,0.25395 0.0635,0.68988 0.0548,1.05058 a 4.1469002,4.1464343 0 0 1 1.33584,1.4888 c 0.0117,-0.0692 0.0254,-0.1377 0.0351,-0.20774 0.0422,-0.32479 0.0422,-1.28596 0,-1.61075 -0.10563,-0.74727 -0.31657,-1.44689 -0.63872,-2.0991 -0.33799,-0.68655 -0.70006,-1.19604 -1.2361,-1.73736 -0.27461,-0.28254 -0.73899,-0.67903 -0.78652,-0.67903 z" /></g></svg>
